optRun
version=1
nRows=11
nColumns=21
inDegrees=no
endheader
time	r_shoulder_elev	r_elbow_flex	r_shoulder_elev_u	r_elbow_flex_u	TRIlong.activation	TRIlong.fiber_length	TRIlat.activation	TRIlat.fiber_length	TRImed.activation	TRImed.fiber_length	BIClong.activation	BIClong.fiber_length	BICshort.activation	BICshort.fiber_length	BRA.activation	BRA.fiber_length	DeltAnt.activation	DeltAnt.fiber_length	DeltPost.activation	DeltPost.fiber_length
        1.038938	        0.957989	       -0.477610	        0.225370	       -0.124108	        0.399930	        0.163699	        0.195777	        0.066777	        0.279477	        0.061765	        0.746802	        0.126433	        0.271047	        0.161765	        0.122761	        0.082971	        0.214439	        0.126155	        0.313096	        0.146326
        1.043408	        0.958983	       -0.478115	        0.219307	       -0.101878	        0.400898	        0.163733	        0.197304	        0.066781	        0.280937	        0.061770	        0.747675	        0.126409	        0.271693	        0.161790	        0.123129	        0.082963	        0.214435	        0.126118	        0.314301	        0.146366
        1.047377	        0.959843	       -0.478481	        0.214045	       -0.083178	        0.401753	        0.163762	        0.198666	        0.066784	        0.282237	        0.061774	        0.748435	        0.126388	        0.272266	        0.161813	        0.123455	        0.082957	        0.214431	        0.126086	        0.315374	        0.146401
        1.051345	        0.960682	       -0.478776	        0.208663	       -0.065021	        0.402605	        0.163789	        0.200034	        0.066787	        0.283539	        0.061777	        0.749181	        0.126368	        0.272838	        0.161836	        0.123782	        0.082951	        0.214424	        0.126054	        0.316449	        0.146435
        1.055043	        0.961445	       -0.478987	        0.203991	       -0.049525	        0.403396	        0.163813	        0.201314	        0.066788	        0.284757	        0.061779	        0.749865	        0.126350	        0.273371	        0.161857	        0.124087	        0.082947	        0.214415	        0.126026	        0.317452	        0.146466
        1.056718	        0.961785	       -0.479065	        0.201915	       -0.042820	        0.403752	        0.163824	        0.201896	        0.066788	        0.285309	        0.061780	        0.750170	        0.126343	        0.273612	        0.161866	        0.124226	        0.082946	        0.214411	        0.126013	        0.317907	        0.146480
        1.058392	        0.962121	       -0.479131	        0.199711	       -0.036007	        0.404109	        0.163834	        0.202478	        0.066788	        0.285861	        0.061781	        0.750474	        0.126335	        0.273853	        0.161876	        0.124364	        0.082944	        0.214406	        0.126001	        0.318363	        0.146493
        1.060135	        0.962467	       -0.479188	        0.197454	       -0.029147	        0.404479	        0.163844	        0.203086	        0.066788	        0.286437	        0.061781	        0.750787	        0.126327	        0.274104	        0.161886	        0.124508	        0.082943	        0.214400	        0.125988	        0.318837	        0.146507
        1.062695	        0.962969	       -0.479250	        0.194300	       -0.019675	        0.405021	        0.163859	        0.203980	        0.066787	        0.287283	        0.061781	        0.751242	        0.126316	        0.274472	        0.161900	        0.124720	        0.082941	        0.214391	        0.125969	        0.319535	        0.146528
        1.063832	        0.963189	       -0.479270	        0.192908	       -0.015590	        0.405261	        0.163865	        0.204378	        0.066787	        0.287660	        0.061781	        0.751442	        0.126311	        0.274635	        0.161906	        0.124814	        0.082940	        0.214386	        0.125961	        0.319845	        0.146537
        1.064243	        0.963268	       -0.479276	        0.192376	       -0.014071	        0.405348	        0.163868	        0.204522	        0.066787	        0.287796	        0.061781	        0.751514	        0.126310	        0.274694	        0.161909	        0.124848	        0.082940	        0.214385	        0.125958	        0.319957	        0.146540
